<svg xmlns="http://www.w3.org/2000/svg" xmlns:xlink="http://www.w3.org/1999/xlink" id="Layer_1" x="0" y="0" version="1.1" viewBox="0 0 724.7 143.1" xml:space="preserve" style="enable-background:new 0 0 724.7 143.1"><style type="text/css">.st0{fill:#4294d3}.st1{font-family:&apos;Sportscenter&apos;}.st2{font-size:140px}.st3{letter-spacing:-10}.st4{fill:#21bdf0}.st5{fill:none;stroke:#21bdf0;stroke-width:6;stroke-linecap:round}</style><title>Fabio</title><text class="st0 st1 st2 st3" transform="matrix(1 0 0 1 291 140)">Fabio</text><path d="M106,0h60c5.5,0,10,4.5,10,10v20c0,5.5-4.5,10-10,10h-60c-5.5,0-10-4.5-10-10V10C96,4.5,100.5,0,106,0z" class="st0"/><path d="M10,104h60c5.5,0,10,4.5,10,10v20c0,5.5-4.5,10-10,10H10c-5.5,0-10-4.5-10-10v-20C0,108.5,4.5,104,10,104z" class="st0"/><path d="M106,104h60c5.5,0,10,4.5,10,10v20c0,5.5-4.5,10-10,10h-60c-5.5,0-10-4.5-10-10v-20C96,108.5,100.5,104,106,104	z" class="st0"/><path d="M202,104h60c5.5,0,10,4.5,10,10v20c0,5.5-4.5,10-10,10h-60c-5.5,0-10-4.5-10-10v-20	C192,108.5,196.5,104,202,104z" class="st4"/><line x1="136" x2="136" y1="48" y2="96" class="st5"/><line x1="40" x2="40" y1="80" y2="96" class="st5"/><line x1="232" x2="232" y1="80" y2="96" class="st5"/><line x1="80" x2="192" y1="64" y2="64" class="st5"/><line x1="80" x2="40" y1="64" y2="80" class="st5"/><line x1="192" x2="232" y1="64" y2="80" class="st5"/></svg>